<svg xmlns="http://www.w3.org/2000/svg" viewBox="0 0 1047 687" width="1047" height="687">
  <!-- 背景 -->
  <rect width="1047" height="687" fill="#0f1a2e"/>

  <!-- 外墙轮廓 -->
  <rect x="10" y="10" width="1027" height="667" rx="8" fill="#0a1020" stroke="#1a3a5c" stroke-width="2"/>

  <!-- ══════════════════════════════════════════════
       上方收货区
  ══════════════════════════════════════════════ -->

  <!-- 收货区背景 -->
  <rect x="15" y="15" width="1017" height="60" rx="4" fill="#0d1a30" stroke="#1a3a5c" stroke-width="1"/>

  <!-- 收货区标注 -->
  <text x="530" y="50" text-anchor="middle" font-family="Microsoft YaHei, sans-serif" font-size="14" fill="#4cc9f0" font-weight="bold">▲ 收货区 / 入口</text>

  <!-- 收货登记亭 -->
  <rect x="470" y="25" width="107" height="40" rx="6" fill="#1a2a44" stroke="#4cc9f0" stroke-width="1.5"/>
  <text x="523" y="50" text-anchor="middle" font-family="Microsoft YaHei, sans-serif" font-size="11" fill="#4cc9f0">收货登记</text>

  <!-- ══════════════════════════════════════════════
       左上区 A-F
  ══════════════════════════════════════════════ -->

  <!-- 左上区背景 -->
  <rect x="15" y="80" width="500" height="310" rx="4" fill="#0d1a30" stroke="#1a3a5c" stroke-width="1"/>

  <!-- 区域标签 -->
  <text x="265" y="108" text-anchor="middle" font-family="Microsoft YaHei, sans-serif" font-size="13" fill="#2a4a6a" letter-spacing="4">◈ A R E A ◈</text>

  <!-- ── 货架 A (3组) ── -->
  <!-- A组标签 -->
  <text x="50" y="132" font-family="Microsoft YaHei, sans-serif" font-size="12" fill="#4cc9f0" font-weight="bold">A</text>
  <!-- A组货架 (竖向3列) -->
  <rect x="38" y="140" width="28" height="220" rx="3" fill="#1a3050" stroke="#4cc9f0" stroke-width="1.5"/>
  <rect x="68" y="140" width="28" height="220" rx="3" fill="#1a3050" stroke="#4cc9f0" stroke-width="1.5"/>
  <rect x="98" y="140" width="28" height="220" rx="3" fill="#1a3050" stroke="#4cc9f0" stroke-width="1.5"/>
  <!-- A货架层线 -->
  <line x1="38" y1="195" x2="126" y2="195" stroke="#2a4a6a" stroke-width="0.8" stroke-dasharray="2,2"/>
  <line x1="38" y1="250" x2="126" y2="250" stroke="#2a4a6a" stroke-width="0.8" stroke-dasharray="2,2"/>
  <line x1="38" y1="305" x2="126" y2="305" stroke="#2a4a6a" stroke-width="0.8" stroke-dasharray="2,2"/>
  <!-- A组货位标注 -->
  <text x="83" y="175" text-anchor="middle" font-family="monospace" font-size="9" fill="#4cc9f0">A01</text>
  <text x="83" y="222" text-anchor="middle" font-family="monospace" font-size="9" fill="#4cc9f0">A02</text>
  <text x="83" y="277" text-anchor="middle" font-family="monospace" font-size="9" fill="#4cc9f0">A03</text>
  <text x="83" y="332" text-anchor="middle" font-family="monospace" font-size="9" fill="#4cc9f0">A04</text>

  <!-- ── 货架 B (3组) ── -->
  <text x="160" y="132" font-family="Microsoft YaHei, sans-serif" font-size="12" fill="#4cc9f0" font-weight="bold">B</text>
  <rect x="148" y="140" width="28" height="220" rx="3" fill="#1a3050" stroke="#4cc9f0" stroke-width="1.5"/>
  <rect x="178" y="140" width="28" height="220" rx="3" fill="#1a3050" stroke="#4cc9f0" stroke-width="1.5"/>
  <rect x="208" y="140" width="28" height="220" rx="3" fill="#1a3050" stroke="#4cc9f0" stroke-width="1.5"/>
  <line x1="148" y1="195" x2="236" y2="195" stroke="#2a4a6a" stroke-width="0.8" stroke-dasharray="2,2"/>
  <line x1="148" y1="250" x2="236" y2="250" stroke="#2a4a6a" stroke-width="0.8" stroke-dasharray="2,2"/>
  <line x1="148" y1="305" x2="236" y2="305" stroke="#2a4a6a" stroke-width="0.8" stroke-dasharray="2,2"/>
  <text x="193" y="175" text-anchor="middle" font-family="monospace" font-size="9" fill="#4cc9f0">B01</text>
  <text x="193" y="222" text-anchor="middle" font-family="monospace" font-size="9" fill="#4cc9f0">B02</text>
  <text x="193" y="277" text-anchor="middle" font-family="monospace" font-size="9" fill="#4cc9f0">B03</text>
  <text x="193" y="332" text-anchor="middle" font-family="monospace" font-size="9" fill="#4cc9f0">B04</text>

  <!-- ── 货架 C (3组) ── -->
  <text x="270" y="132" font-family="Microsoft YaHei, sans-serif" font-size="12" fill="#4cc9f0" font-weight="bold">C</text>
  <rect x="258" y="140" width="28" height="220" rx="3" fill="#1a3050" stroke="#4cc9f0" stroke-width="1.5"/>
  <rect x="288" y="140" width="28" height="220" rx="3" fill="#1a3050" stroke="#4cc9f0" stroke-width="1.5"/>
  <rect x="318" y="140" width="28" height="220" rx="3" fill="#1a3050" stroke="#4cc9f0" stroke-width="1.5"/>
  <line x1="258" y1="195" x2="346" y2="195" stroke="#2a4a6a" stroke-width="0.8" stroke-dasharray="2,2"/>
  <line x1="258" y1="250" x2="346" y2="250" stroke="#2a4a6a" stroke-width="0.8" stroke-dasharray="2,2"/>
  <line x1="258" y1="305" x2="346" y2="305" stroke="#2a4a6a" stroke-width="0.8" stroke-dasharray="2,2"/>
  <text x="303" y="175" text-anchor="middle" font-family="monospace" font-size="9" fill="#4cc9f0">C01</text>
  <text x="303" y="222" text-anchor="middle" font-family="monospace" font-size="9" fill="#4cc9f0">C02</text>
  <text x="303" y="277" text-anchor="middle" font-family="monospace" font-size="9" fill="#4cc9f0">C03</text>
  <text x="303" y="332" text-anchor="middle" font-family="monospace" font-size="9" fill="#4cc9f0">C04</text>

  <!-- ── 货架 D (3组) ── -->
  <text x="380" y="132" font-family="Microsoft YaHei, sans-serif" font-size="12" fill="#4cc9f0" font-weight="bold">D</text>
  <rect x="368" y="140" width="28" height="220" rx="3" fill="#1a3050" stroke="#4cc9f0" stroke-width="1.5"/>
  <rect x="398" y="140" width="28" height="220" rx="3" fill="#1a3050" stroke="#4cc9f0" stroke-width="1.5"/>
  <rect x="428" y="140" width="28" height="220" rx="3" fill="#1a3050" stroke="#4cc9f0" stroke-width="1.5"/>
  <line x1="368" y1="195" x2="456" y2="195" stroke="#2a4a6a" stroke-width="0.8" stroke-dasharray="2,2"/>
  <line x1="368" y1="250" x2="456" y2="250" stroke="#2a4a6a" stroke-width="0.8" stroke-dasharray="2,2"/>
  <line x1="368" y1="305" x2="456" y2="305" stroke="#2a4a6a" stroke-width="0.8" stroke-dasharray="2,2"/>
  <text x="413" y="175" text-anchor="middle" font-family="monospace" font-size="9" fill="#4cc9f0">D01</text>
  <text x="413" y="222" text-anchor="middle" font-family="monospace" font-size="9" fill="#4cc9f0">D02</text>
  <text x="413" y="277" text-anchor="middle" font-family="monospace" font-size="9" fill="#4cc9f0">D03</text>
  <text x="413" y="332" text-anchor="middle" font-family="monospace" font-size="9" fill="#4cc9f0">D04</text>

  <!-- ══════════════════════════════════════════════
       中间主通道
  ══════════════════════════════════════════════ -->

  <!-- 通道背景 -->
  <rect x="510" y="80" width="87" height="310" rx="2" fill="#0a1020" stroke="#1a3a5c" stroke-width="1" stroke-dasharray="6,4"/>
  <text x="553" y="238" text-anchor="middle" font-family="Microsoft YaHei, sans-serif" font-size="12" fill="#2a4a6a" transform="rotate(-90,553,238)">主通道</text>

  <!-- ══════════════════════════════════════════════
       右上区 E-J
  ══════════════════════════════════════════════ -->

  <rect x="592" y="80" width="440" height="310" rx="4" fill="#0d1a30" stroke="#1a3a5c" stroke-width="1"/>

  <text x="812" y="108" text-anchor="middle" font-family="Microsoft YaHei, sans-serif" font-size="13" fill="#2a4a6a" letter-spacing="4">◈ B R E A ◈</text>

  <!-- ── 货架 E (3组) ── -->
  <text x="627" y="132" font-family="Microsoft YaHei, sans-serif" font-size="12" fill="#4cc9f0" font-weight="bold">E</text>
  <rect x="615" y="140" width="28" height="220" rx="3" fill="#1a3050" stroke="#4cc9f0" stroke-width="1.5"/>
  <rect x="645" y="140" width="28" height="220" rx="3" fill="#1a3050" stroke="#4cc9f0" stroke-width="1.5"/>
  <rect x="675" y="140" width="28" height="220" rx="3" fill="#1a3050" stroke="#4cc9f0" stroke-width="1.5"/>
  <line x1="615" y1="195" x2="703" y2="195" stroke="#2a4a6a" stroke-width="0.8" stroke-dasharray="2,2"/>
  <line x1="615" y1="250" x2="703" y2="250" stroke="#2a4a6a" stroke-width="0.8" stroke-dasharray="2,2"/>
  <line x1="615" y1="305" x2="703" y2="305" stroke="#2a4a6a" stroke-width="0.8" stroke-dasharray="2,2"/>
  <text x="660" y="175" text-anchor="middle" font-family="monospace" font-size="9" fill="#4cc9f0">E01</text>
  <text x="660" y="222" text-anchor="middle" font-family="monospace" font-size="9" fill="#4cc9f0">E02</text>
  <text x="660" y="277" text-anchor="middle" font-family="monospace" font-size="9" fill="#4cc9f0">E03</text>
  <text x="660" y="332" text-anchor="middle" font-family="monospace" font-size="9" fill="#4cc9f0">E04</text>

  <!-- ── 货架 F (3组) ── -->
  <text x="737" y="132" font-family="Microsoft YaHei, sans-serif" font-size="12" fill="#4cc9f0" font-weight="bold">F</text>
  <rect x="725" y="140" width="28" height="220" rx="3" fill="#1a3050" stroke="#4cc9f0" stroke-width="1.5"/>
  <rect x="755" y="140" width="28" height="220" rx="3" fill="#1a3050" stroke="#4cc9f0" stroke-width="1.5"/>
  <rect x="785" y="140" width="28" height="220" rx="3" fill="#1a3050" stroke="#4cc9f0" stroke-width="1.5"/>
  <line x1="725" y1="195" x2="813" y2="195" stroke="#2a4a6a" stroke-width="0.8" stroke-dasharray="2,2"/>
  <line x1="725" y1="250" x2="813" y2="250" stroke="#2a4a6a" stroke-width="0.8" stroke-dasharray="2,2"/>
  <line x1="725" y1="305" x2="813" y2="305" stroke="#2a4a6a" stroke-width="0.8" stroke-dasharray="2,2"/>
  <text x="770" y="175" text-anchor="middle" font-family="monospace" font-size="9" fill="#4cc9f0">F01</text>
  <text x="770" y="222" text-anchor="middle" font-family="monospace" font-size="9" fill="#4cc9f0">F02</text>
  <text x="770" y="277" text-anchor="middle" font-family="monospace" font-size="9" fill="#4cc9f0">F03</text>
  <text x="770" y="332" text-anchor="middle" font-family="monospace" font-size="9" fill="#4cc9f0">F04</text>

  <!-- ── 货架 G (3组) ── -->
  <text x="847" y="132" font-family="Microsoft YaHei, sans-serif" font-size="12" fill="#4cc9f0" font-weight="bold">G</text>
  <rect x="835" y="140" width="28" height="220" rx="3" fill="#1a3050" stroke="#4cc9f0" stroke-width="1.5"/>
  <rect x="865" y="140" width="28" height="220" rx="3" fill="#1a3050" stroke="#4cc9f0" stroke-width="1.5"/>
  <rect x="895" y="140" width="28" height="220" rx="3" fill="#1a3050" stroke="#4cc9f0" stroke-width="1.5"/>
  <line x1="835" y1="195" x2="923" y2="195" stroke="#2a4a6a" stroke-width="0.8" stroke-dasharray="2,2"/>
  <line x1="835" y1="250" x2="923" y2="250" stroke="#2a4a6a" stroke-width="0.8" stroke-dasharray="2,2"/>
  <line x1="835" y1="305" x2="923" y2="305" stroke="#2a4a6a" stroke-width="0.8" stroke-dasharray="2,2"/>
  <text x="880" y="175" text-anchor="middle" font-family="monospace" font-size="9" fill="#4cc9f0">G01</text>
  <text x="880" y="222" text-anchor="middle" font-family="monospace" font-size="9" fill="#4cc9f0">G02</text>
  <text x="880" y="277" text-anchor="middle" font-family="monospace" font-size="9" fill="#4cc9f0">G03</text>
  <text x="880" y="332" text-anchor="middle" font-family="monospace" font-size="9" fill="#4cc9f0">G04</text>

  <!-- ── 货架 H (3组) ── -->
  <text x="957" y="132" font-family="Microsoft YaHei, sans-serif" font-size="12" fill="#4cc9f0" font-weight="bold">H</text>
  <rect x="945" y="140" width="28" height="220" rx="3" fill="#1a3050" stroke="#4cc9f0" stroke-width="1.5"/>
  <rect x="975" y="140" width="28" height="220" rx="3" fill="#1a3050" stroke="#4cc9f0" stroke-width="1.5"/>
  <rect x="1005" y="140" width="22" height="220" rx="3" fill="#1a3050" stroke="#4cc9f0" stroke-width="1.5"/>
  <line x1="945" y1="195" x2="1027" y2="195" stroke="#2a4a6a" stroke-width="0.8" stroke-dasharray="2,2"/>
  <line x1="945" y1="250" x2="1027" y2="250" stroke="#2a4a6a" stroke-width="0.8" stroke-dasharray="2,2"/>
  <line x1="945" y1="305" x2="1027" y2="305" stroke="#2a4a6a" stroke-width="0.8" stroke-dasharray="2,2"/>
  <text x="990" y="175" text-anchor="middle" font-family="monospace" font-size="9" fill="#4cc9f0">H01</text>
  <text x="990" y="222" text-anchor="middle" font-family="monospace" font-size="9" fill="#4cc9f0">H02</text>
  <text x="990" y="277" text-anchor="middle" font-family="monospace" font-size="9" fill="#4cc9f0">H03</text>
  <text x="990" y="332" text-anchor="middle" font-family="monospace" font-size="9" fill="#4cc9f0">H04</text>

  <!-- ══════════════════════════════════════════════
       下方出货区
  ══════════════════════════════════════════════ -->

  <rect x="15" y="395" width="1017" height="282" rx="4" fill="#0d1a30" stroke="#1a3a5c" stroke-width="1"/>

  <text x="530" y="422" text-anchor="middle" font-family="Microsoft YaHei, sans-serif" font-size="13" fill="#2a4a6a" letter-spacing="4">◈ C R E A ◈</text>

  <!-- ── 下区货架 J/K/L ── -->
  <!-- 标签 -->
  <text x="50" y="446" font-family="Microsoft YaHei, sans-serif" font-size="12" fill="#4cc9f0" font-weight="bold">J</text>
  <text x="160" y="446" font-family="Microsoft YaHei, sans-serif" font-size="12" fill="#4cc9f0" font-weight="bold">K</text>
  <text x="270" y="446" font-family="Microsoft YaHei, sans-serif" font-size="12" fill="#4cc9f0" font-weight="bold">L</text>

  <!-- J组 (横放3列) -->
  <rect x="38" y="454" width="28" height="195" rx="3" fill="#1a3050" stroke="#4cc9f0" stroke-width="1.5"/>
  <rect x="68" y="454" width="28" height="195" rx="3" fill="#1a3050" stroke="#4cc9f0" stroke-width="1.5"/>
  <rect x="98" y="454" width="28" height="195" rx="3" fill="#1a3050" stroke="#4cc9f0" stroke-width="1.5"/>
  <line x1="38" y1="502" x2="126" y2="502" stroke="#2a4a6a" stroke-width="0.8" stroke-dasharray="2,2"/>
  <line x1="38" y1="550" x2="126" y2="550" stroke="#2a4a6a" stroke-width="0.8" stroke-dasharray="2,2"/>
  <line x1="38" y1="598" x2="126" y2="598" stroke="#2a4a6a" stroke-width="0.8" stroke-dasharray="2,2"/>
  <text x="83" y="482" text-anchor="middle" font-family="monospace" font-size="9" fill="#4cc9f0">J01</text>
  <text x="83" y="529" text-anchor="middle" font-family="monospace" font-size="9" fill="#4cc9f0">J02</text>
  <text x="83" y="577" text-anchor="middle" font-family="monospace" font-size="9" fill="#4cc9f0">J03</text>
  <text x="83" y="625" text-anchor="middle" font-family="monospace" font-size="9" fill="#4cc9f0">J04</text>

  <!-- K组 -->
  <rect x="148" y="454" width="28" height="195" rx="3" fill="#1a3050" stroke="#4cc9f0" stroke-width="1.5"/>
  <rect x="178" y="454" width="28" height="195" rx="3" fill="#1a3050" stroke="#4cc9f0" stroke-width="1.5"/>
  <rect x="208" y="454" width="28" height="195" rx="3" fill="#1a3050" stroke="#4cc9f0" stroke-width="1.5"/>
  <line x1="148" y1="502" x2="236" y2="502" stroke="#2a4a6a" stroke-width="0.8" stroke-dasharray="2,2"/>
  <line x1="148" y1="550" x2="236" y2="550" stroke="#2a4a6a" stroke-width="0.8" stroke-dasharray="2,2"/>
  <line x1="148" y1="598" x2="236" y2="598" stroke="#2a4a6a" stroke-width="0.8" stroke-dasharray="2,2"/>
  <text x="193" y="482" text-anchor="middle" font-family="monospace" font-size="9" fill="#4cc9f0">K01</text>
  <text x="193" y="529" text-anchor="middle" font-family="monospace" font-size="9" fill="#4cc9f0">K02</text>
  <text x="193" y="577" text-anchor="middle" font-family="monospace" font-size="9" fill="#4cc9f0">K03</text>
  <text x="193" y="625" text-anchor="middle" font-family="monospace" font-size="9" fill="#4cc9f0">K04</text>

  <!-- L组 -->
  <rect x="258" y="454" width="28" height="195" rx="3" fill="#1a3050" stroke="#4cc9f0" stroke-width="1.5"/>
  <rect x="288" y="454" width="28" height="195" rx="3" fill="#1a3050" stroke="#4cc9f0" stroke-width="1.5"/>
  <rect x="318" y="454" width="28" height="195" rx="3" fill="#1a3050" stroke="#4cc9f0" stroke-width="1.5"/>
  <line x1="258" y1="502" x2="346" y2="502" stroke="#2a4a6a" stroke-width="0.8" stroke-dasharray="2,2"/>
  <line x1="258" y1="550" x2="346" y2="550" stroke="#2a4a6a" stroke-width="0.8" stroke-dasharray="2,2"/>
  <line x1="258" y1="598" x2="346" y2="598" stroke="#2a4a6a" stroke-width="0.8" stroke-dasharray="2,2"/>
  <text x="303" y="482" text-anchor="middle" font-family="monospace" font-size="9" fill="#4cc9f0">L01</text>
  <text x="303" y="529" text-anchor="middle" font-family="monospace" font-size="9" fill="#4cc9f0">L02</text>
  <text x="303" y="577" text-anchor="middle" font-family="monospace" font-size="9" fill="#4cc9f0">L03</text>
  <text x="303" y="625" text-anchor="middle" font-family="monospace" font-size="9" fill="#4cc9f0">L04</text>

  <!-- ── 出货暂存区 ── -->
  <rect x="390" y="420" width="320" height="235" rx="6" fill="#0a1020" stroke="#2a4a6a" stroke-width="1" stroke-dasharray="6,4"/>
  <text x="550" y="542" text-anchor="middle" font-family="Microsoft YaHei, sans-serif" font-size="14" fill="#2a4a6a" font-weight="bold">出货暂存区</text>
  <text x="550" y="562" text-anchor="middle" font-family="Microsoft YaHei, sans-serif" font-size="11" fill="#1a3050">STAGING AREA</text>

  <!-- 货架格示意 -->
  <rect x="410" y="448" width="56" height="36" rx="3" fill="#0d1a30" stroke="#1a3a5c" stroke-width="1"/>
  <rect x="474" y="448" width="56" height="36" rx="3" fill="#0d1a30" stroke="#1a3a5c" stroke-width="1"/>
  <rect x="538" y="448" width="56" height="36" rx="3" fill="#0d1a30" stroke="#1a3a5c" stroke-width="1"/>
  <rect x="602" y="448" width="56" height="36" rx="3" fill="#0d1a30" stroke="#1a3a5c" stroke-width="1"/>
  <rect x="666" y="448" width="26" height="36" rx="3" fill="#0d1a30" stroke="#1a3a5c" stroke-width="1"/>
  <rect x="410" y="492" width="56" height="36" rx="3" fill="#0d1a30" stroke="#1a3a5c" stroke-width="1"/>
  <rect x="474" y="492" width="56" height="36" rx="3" fill="#0d1a30" stroke="#1a3a5c" stroke-width="1"/>
  <rect x="538" y="492" width="56" height="36" rx="3" fill="#0d1a30" stroke="#1a3a5c" stroke-width="1"/>
  <rect x="602" y="492" width="56" height="36" rx="3" fill="#0d1a30" stroke="#1a3a5c" stroke-width="1"/>
  <rect x="666" y="492" width="26" height="36" rx="3" fill="#0d1a30" stroke="#1a3a5c" stroke-width="1"/>
  <rect x="410" y="536" width="56" height="36" rx="3" fill="#0d1a30" stroke="#1a3a5c" stroke-width="1"/>
  <rect x="474" y="536" width="56" height="36" rx="3" fill="#0d1a30" stroke="#1a3a5c" stroke-width="1"/>
  <rect x="538" y="536" width="56" height="36" rx="3" fill="#0d1a30" stroke="#1a3a5c" stroke-width="1"/>
  <rect x="602" y="536" width="56" height="36" rx="3" fill="#0d1a30" stroke="#1a3a5c" stroke-width="1"/>
  <rect x="666" y="536" width="26" height="36" rx="3" fill="#0d1a30" stroke="#1a3a5c" stroke-width="1"/>
  <rect x="410" y="580" width="56" height="36" rx="3" fill="#0d1a30" stroke="#1a3a5c" stroke-width="1"/>
  <rect x="474" y="580" width="56" height="36" rx="3" fill="#0d1a30" stroke="#1a3a5c" stroke-width="1"/>
  <rect x="538" y="580" width="56" height="36" rx="3" fill="#0d1a30" stroke="#1a3a5c" stroke-width="1"/>
  <rect x="602" y="580" width="56" height="36" rx="3" fill="#0d1a30" stroke="#1a3a5c" stroke-width="1"/>
  <rect x="666" y="580" width="26" height="36" rx="3" fill="#0d1a30" stroke="#1a3a5c" stroke-width="1"/>

  <!-- ── 出货月台 ── -->
  <rect x="720" y="420" width="312" height="235" rx="6" fill="#0a1020" stroke="#e94560" stroke-width="1.5"/>
  <text x="876" y="542" text-anchor="middle" font-family="Microsoft YaHei, sans-serif" font-size="14" fill="#e94560" font-weight="bold">▼ 出货区 / 月台</text>

  <!-- 月台隔间 -->
  <line x1="720" y1="490" x2="1032" y2="490" stroke="#1a3a5c" stroke-width="1"/>
  <line x1="720" y1="560" x2="1032" y2="560" stroke="#1a3a5c" stroke-width="1"/>
  <line x1="816" y1="420" x2="816" y2="655" stroke="#1a3a5c" stroke-width="1"/>
  <line x1="912" y1="420" x2="912" y2="655" stroke="#1a3a5c" stroke-width="1"/>
  <text x="768" y="460" text-anchor="middle" font-family="monospace" font-size="10" fill="#2a4a6a">D1</text>
  <text x="864" y="460" text-anchor="middle" font-family="monospace" font-size="10" fill="#2a4a6a">D2</text>
  <text x="972" y="460" text-anchor="middle" font-family="monospace" font-size="10" fill="#2a4a6a">D3</text>
  <text x="768" y="530" text-anchor="middle" font-family="monospace" font-size="10" fill="#2a4a6a">D4</text>
  <text x="864" y="530" text-anchor="middle" font-family="monospace" font-size="10" fill="#2a4a6a">D5</text>
  <text x="972" y="530" text-anchor="middle" font-family="monospace" font-size="10" fill="#2a4a6a">D6</text>
  <text x="768" y="600" text-anchor="middle" font-family="monospace" font-size="10" fill="#2a4a6a">D7</text>
  <text x="864" y="600" text-anchor="middle" font-family="monospace" font-size="10" fill="#2a4a6a">D8</text>
  <text x="972" y="600" text-anchor="middle" font-family="monospace" font-size="10" fill="#2a4a6a">D9</text>

  <!-- ══════════════════════════════════════════════
       走道箭头（左侧）
  ══════════════════════════════════════════════ -->

  <!-- 入库方向 -->
  <text x="83" y="78" text-anchor="middle" font-family="Microsoft YaHei, sans-serif" font-size="10" fill="#2a4a6a">入库</text>
  <line x1="83" y1="65" x2="83" y2="38" stroke="#2a4a6a" stroke-width="1" marker-end="url(#arrow)"/>
  <!-- 出库方向 -->
  <text x="303" y="78" text-anchor="middle" font-family="Microsoft YaHei, sans-serif" font-size="10" fill="#2a4a6a">出库</text>
  <line x1="303" y1="65" x2="303" y2="38" stroke="#2a4a6a" stroke-width="1"/>

  <!-- 箭头定义 -->
  <defs>
    <marker id="arrow" markerWidth="6" markerHeight="6" refX="3" refY="3" orient="auto">
      <path d="M0,0 L6,3 L0,6 Z" fill="#2a4a6a"/>
    </marker>
  </defs>

</svg>
